<?xml version="1.0" encoding="utf-8"?>
<!-- Generator: Adobe Illustrator 23.1.0, SVG Export Plug-In . SVG Version: 6.00 Build 0)  -->
<svg version="1.1" id="Layer_1" xmlns="http://www.w3.org/2000/svg" xmlns:xlink="http://www.w3.org/1999/xlink" x="0px" y="0px"
	 viewBox="0 0 583.2 583.2" style="enable-background:new 0 0 583.2 583.2;" xml:space="preserve">
<style type="text/css">
	.st0{fill-rule:evenodd;clip-rule:evenodd;fill:#E13236;}
	.st1{fill-rule:evenodd;clip-rule:evenodd;fill:#FFFFFF;}
	.st2{fill:#FFFFFF;}
</style>
<g>
	<rect class="st0" width="583.2" height="583.2"/>
	<polygon class="st1" points="385.9,124.5 437.7,158 437.7,304.5 291.3,209.8 290.8,210 290.7,137 291.3,136.3 385.9,197.5 	"/>
	<polygon class="st1" points="196.6,124.5 144.8,158 144.8,304.5 291.3,209.8 291.3,136.3 196.6,197.5 	"/>
	<path class="st2" d="M75.8,385.6v-39.8H69v39.9c0,9.5-4.9,14.3-11.7,14.3c-6.2,0-10-3-13.6-8.5l-4.8,4.2
		c3.7,6.1,9.4,10.5,18.4,10.5C67.9,406.2,75.8,399.3,75.8,385.6L75.8,385.6z M143.4,345.8h-6.7v34.6c0,13-7,19.7-18,19.7
		c-11.4,0-18.2-7.2-18.2-20.1v-34.2h-6.7v34.6c0,16.9,10,25.9,24.7,25.9c14.9,0,24.9-9,24.9-26.4V345.8z M167.6,360.7
		c0-5.4,4.9-9.7,12.7-9.7c6.1,0,11.7,2,17.2,6.5l3.9-5.2c-6-4.8-12.2-7.3-20.9-7.3c-11.3,0-19.6,6.8-19.6,16.4
		c0,9.9,6.3,14.3,20,17.3c12.5,2.6,15.5,5.8,15.5,11.4c0,6-5.3,10.2-13.3,10.2c-8.2,0-14.2-2.8-20.4-8.4l-4.2,4.9
		c7.1,6.4,14.9,9.5,24.3,9.5c11.8,0,20.4-6.6,20.4-16.9c0-9.2-6.1-14.1-19.4-17C170.6,369.6,167.6,366.4,167.6,360.7L167.6,360.7z
		 M241.1,352h20v-6.2h-46.8v6.2h20v53.3h6.8V352z"/>
	<path class="st2" d="M307,390l-14.2-44.2h-11.3l20.7,60h9l14.6-42.8l14.6,42.8h9l20.7-60h-11L345.1,390l-14.6-44.3h-8.8L307,390z
		 M428.2,345.8H384v59.6h44.6V396h-34.1v-16h29.9v-9.4h-29.9v-15.5h33.7V345.8z M452.9,361.4c0-4,3.6-7.1,9.7-7.1
		c5.4,0,10.8,2.1,16.2,6.1l5.6-7.9c-6.1-4.8-13-7.5-21.6-7.5c-11.8,0-20.3,7-20.3,17.4c0,11.1,7.1,14.8,19.8,17.9
		c11.1,2.6,13.4,4.8,13.4,9.2c0,4.6-4.1,7.6-10.5,7.6c-7.4,0-13.1-2.8-18.8-7.7l-6.3,7.5c7.2,6.4,15.8,9.5,24.9,9.5
		c12.5,0,21.3-6.6,21.3-17.9c0-10-6.6-14.5-19.2-17.5C455.6,368.1,452.9,366.1,452.9,361.4L452.9,361.4z M525.5,355.5h18.9v-9.7H496
		v9.7h18.9v49.9h10.5V355.5z"/>
	<path class="st2" d="M150.5,449.3c0-5-3.7-9.4-9.2-9.4c-5.5,0-9.3,4.4-9.3,9.4c0,5,3.7,9.3,9.2,9.3
		C146.7,458.7,150.5,454.3,150.5,449.3L150.5,449.3z M148.4,449.4c0,4.1-2.9,7.5-7.1,7.5s-7.1-3.4-7.1-7.5s2.9-7.5,7.1-7.5
		C145.4,441.9,148.4,445.2,148.4,449.4L148.4,449.4z M175,454.8l-11.4-14.5h-1.9v18.1h2v-14.9l11.7,14.9h1.6v-18.1h-2V454.8z
		 M204,448.2l7.8-7.9h-2.6l-10.4,10.8v-10.8h-2v18.1h2v-4.8l3.9-3.9l7,8.8h2.6L204,448.2z M222.2,440.3v18.1h2.1v-18.1H222.2z
		 M249.7,454.8l-11.4-14.5h-1.9v18.1h2v-14.9l11.7,14.9h1.6v-18.1h-2V454.8z M279.3,456v-7.2h-7.5v1.8h5.5v4.5
		c-1.2,1-3.1,1.8-5.2,1.8c-4.4,0-7.2-3.2-7.2-7.5c0-4.1,2.9-7.5,6.9-7.5c2.6,0,4.1,0.9,5.5,2.1l1.3-1.6c-1.8-1.5-3.7-2.4-6.7-2.4
		c-5.4,0-9.1,4.4-9.1,9.4c0,5.2,3.5,9.3,9.2,9.3C275.1,458.7,277.6,457.5,279.3,456L279.3,456z M311.6,440.3h-13.1v18.1h13.2v-1.8
		h-11.2v-6.3h9.9v-1.9h-9.9v-6.2h11.1V440.3z M338.5,449.3c0-5.1-3.9-9-9.6-9h-6.3v18.1h6.3C334.6,458.4,338.5,454.5,338.5,449.3
		L338.5,449.3z M336.4,449.4c0,4-2.9,7.1-7.5,7.1h-4.2v-14.3h4.2C333.5,442.2,336.4,445.3,336.4,449.4L336.4,449.4z M354.7,455.4
		l-5.2-15.1h-2.2l6.5,18.3h1.7l5-14.7l5,14.7h1.7l6.5-18.3h-2.2l-5.2,15.1l-5-15.1h-1.7L354.7,455.4z M390.4,440.2h-1.9l-8.2,18.2
		h2.1l2.1-4.8h9.9l2.1,4.8h2.2L390.4,440.2z M393.6,451.8h-8.2l4.1-9.2L393.6,451.8z M424,458.4l-5.6-7.4c2.8-0.5,4.9-2.3,4.9-5.3
		c0-3.3-2.6-5.4-6.5-5.4H409v18.1h2.1v-7h5.2l5.2,7H424z M421.3,445.8c0,2.4-1.9,3.7-4.6,3.7h-5.6v-7.3h5.6
		C419.6,442.2,421.3,443.5,421.3,445.8L421.3,445.8z M450.5,449.3c0-5.1-3.9-9-9.6-9h-6.3v18.1h6.3
		C446.5,458.4,450.5,454.5,450.5,449.3L450.5,449.3z M448.4,449.4c0,4-2.9,7.1-7.5,7.1h-4.3v-14.3h4.3
		C445.4,442.2,448.4,445.3,448.4,449.4L448.4,449.4z"/>
</g>
</svg>
