<?xml version="1.0" encoding="utf-8"?>
<!-- Generator: Adobe Illustrator 24.0.1, SVG Export Plug-In . SVG Version: 6.00 Build 0)  -->
<svg version="1.1" id="Layer_1" xmlns="http://www.w3.org/2000/svg" xmlns:xlink="http://www.w3.org/1999/xlink" x="0px" y="0px"
	 viewBox="0 0 400 113" style="enable-background:new 0 0 400 113;" xml:space="preserve">
<style type="text/css">
	.st0{fill-rule:evenodd;clip-rule:evenodd;fill:#93171A;}
	.st1{fill-rule:evenodd;clip-rule:evenodd;fill:#CD1E25;}
	.st2{fill:#221F20;}
</style>
<g>
	<polygon class="st0" points="127.2,21.5 147.4,34.6 147.4,91.5 90.4,54.7 90.1,54.9 90.1,26.4 90.4,26.1 127.2,49.9 	"/>
	<polygon class="st1" points="53.6,21.5 33.5,34.6 33.5,91.5 90.4,54.7 90.4,26.1 53.6,49.9 	"/>
	<path class="st2" d="M184.3,56.7V41.2h-2.6v15.5c0,3.7-1.9,5.6-4.5,5.6c-2.4,0-3.9-1.2-5.3-3.3l-1.9,1.6c1.4,2.4,3.7,4.1,7.1,4.1
		C181.2,64.7,184.3,62.1,184.3,56.7L184.3,56.7z M210.6,41.2H208v13.5c0,5-2.7,7.7-7,7.7c-4.4,0-7.1-2.8-7.1-7.8V41.2h-2.6v13.5
		c0,6.5,3.9,10.1,9.6,10.1c5.8,0,9.7-3.5,9.7-10.3V41.2z M220,47c0-2.1,1.9-3.8,4.9-3.8c2.4,0,4.5,0.8,6.7,2.5l1.5-2
		c-2.4-1.9-4.8-2.8-8.1-2.8c-4.4,0-7.6,2.6-7.6,6.3c0,3.9,2.5,5.6,7.8,6.7c4.8,1,6,2.3,6,4.5c0,2.3-2,4-5.2,4
		c-3.2,0-5.5-1.1-7.9-3.3l-1.6,1.9c2.8,2.5,5.8,3.7,9.5,3.7c4.6,0,7.9-2.6,7.9-6.6c0-3.6-2.4-5.4-7.6-6.6
		C221.2,50.5,220,49.2,220,47L220,47z M248.6,43.7h7.8v-2.4h-18.2v2.4h7.8v20.7h2.7V43.7z"/>
	<path class="st2" d="M274.2,58.4l-5.5-17.2h-4.4l8.1,23.3h3.5l5.7-16.6l5.7,16.6h3.5l8.1-23.3h-4.3L289,58.4l-5.7-17.3h-3.5
		L274.2,58.4z M321.3,41.2h-17.1v23.2h17.3v-3.7h-13.3v-6.2h11.6v-3.6h-11.6v-6h13.1V41.2z M330.9,47.3c0-1.6,1.4-2.8,3.8-2.8
		c2.1,0,4.2,0.8,6.3,2.4l2.2-3.1c-2.3-1.9-5-2.9-8.4-2.9c-4.6,0-7.9,2.7-7.9,6.7c0,4.3,2.8,5.8,7.7,6.9c4.3,1,5.2,1.9,5.2,3.6
		c0,1.8-1.6,2.9-4.1,2.9c-2.9,0-5.1-1.1-7.3-3L326,61c2.8,2.5,6.1,3.7,9.7,3.7c4.9,0,8.3-2.6,8.3-7c0-3.9-2.6-5.6-7.5-6.8
		C332,49.9,330.9,49.1,330.9,47.3L330.9,47.3z M359.2,45h7.3v-3.8h-18.8V45h7.3v19.4h4.1V45z"/>
	<path class="st2" d="M213.4,81.5c0-2-1.4-3.7-3.6-3.7c-2.2,0-3.6,1.7-3.6,3.7c0,2,1.4,3.6,3.6,3.6
		C211.9,85.1,213.4,83.4,213.4,81.5L213.4,81.5z M212.5,81.5c0,1.6-1.2,2.9-2.7,2.9c-1.6,0-2.8-1.3-2.8-2.9c0-1.6,1.1-2.9,2.7-2.9
		C211.4,78.6,212.5,79.9,212.5,81.5L212.5,81.5z M222.9,83.6l-4.4-5.6h-0.8v7h0.8v-5.8L223,85h0.7v-7h-0.8V83.6z M234.1,81l3-3.1h-1
		l-4,4.2V78h-0.8v7h0.8v-1.9l1.5-1.5l2.7,3.4h1L234.1,81z M241.3,78v7h0.8v-7H241.3z M251.9,83.6l-4.5-5.6h-0.7v7h0.8v-5.8l4.6,5.8
		h0.6v-7h-0.8V83.6z M263.5,84.1v-2.8h-2.9V82h2.2v1.7c-0.5,0.4-1.2,0.7-2,0.7c-1.7,0-2.8-1.2-2.8-2.9c0-1.6,1.1-2.9,2.7-2.9
		c1,0,1.6,0.3,2.2,0.8l0.5-0.6c-0.7-0.6-1.4-0.9-2.6-0.9c-2.1,0-3.5,1.7-3.5,3.7c0,2,1.4,3.6,3.6,3.6
		C261.8,85.1,262.8,84.6,263.5,84.1L263.5,84.1z M276,78h-5.1v7h5.1v-0.7h-4.3v-2.5h3.8v-0.7h-3.8v-2.4h4.3V78z M286.5,81.5
		c0-2-1.5-3.5-3.7-3.5h-2.4v7h2.4C284.9,85,286.5,83.5,286.5,81.5L286.5,81.5z M285.6,81.5c0,1.6-1.1,2.8-2.9,2.8h-1.6v-5.6h1.6
		C284.5,78.7,285.6,79.9,285.6,81.5L285.6,81.5z M292.8,83.9l-2-5.9h-0.9l2.5,7.1h0.7l1.9-5.7l1.9,5.7h0.7l2.5-7.1h-0.9l-2,5.9
		l-1.9-5.9h-0.7L292.8,83.9z M306.7,77.9h-0.7l-3.2,7.1h0.8l0.8-1.8h3.8L309,85h0.9L306.7,77.9z M307.9,82.4h-3.2l1.6-3.6
		L307.9,82.4z M319.7,85l-2.2-2.9c1.1-0.2,1.9-0.9,1.9-2.1c0-1.3-1-2.1-2.5-2.1h-3v7h0.8v-2.7h2l2,2.7H319.7z M318.7,80.1
		c0,0.9-0.8,1.4-1.8,1.4h-2.2v-2.8h2.2C318,78.7,318.7,79.2,318.7,80.1L318.7,80.1z M330,81.5c0-2-1.5-3.5-3.7-3.5h-2.4v7h2.4
		C328.5,85,330,83.5,330,81.5L330,81.5z M329.2,81.5c0,1.6-1.1,2.8-2.9,2.8h-1.6v-5.6h1.6C328.1,78.7,329.2,79.9,329.2,81.5
		L329.2,81.5z"/>
</g>
</svg>
