<?xml version="1.0" encoding="utf-8"?>
<!-- Generator: Adobe Illustrator 24.0.1, SVG Export Plug-In . SVG Version: 6.00 Build 0)  -->
<svg version="1.1" id="Layer_1" xmlns="http://www.w3.org/2000/svg" xmlns:xlink="http://www.w3.org/1999/xlink" x="0px" y="0px"
	 viewBox="0 0 326 57.1" style="enable-background:new 0 0 326 57.1;" xml:space="preserve">
<style type="text/css">
	.st0{fill:#F5F5F5;}
</style>
<g>
	<rect x="160.2" y="27" class="st0" width="3.1" height="12.7"/>
	<polygon class="st0" points="176.5,34.9 171.2,27 167.9,27 167.9,39.7 171,39.7 171,31.9 176.2,39.7 179.5,39.7 179.5,27 176.5,27 
			"/>
	<polygon class="st0" points="184.1,39.7 193.2,39.7 193.2,37 187.2,37 187.2,34.6 192.8,34.6 192.8,32 187.2,32 187.2,29.8 
		193.2,29.8 193.2,27 184.1,27 	"/>
	<polygon class="st0" points="150.8,27 147.7,27 147.7,39.7 156.9,39.7 156.9,37 150.8,37 	"/>
	<rect x="95.4" y="27" class="st0" width="3.1" height="12.7"/>
	<path class="st0" d="M84,30.7c0-0.8,0.8-1.3,1.8-1.3c1.2,0,2,0.7,2,1.8H91c0-2.6-2.2-4.3-5-4.3c-3,0-5.2,1.6-5.2,4
		c0,4.6,7.3,2.8,7.3,5.1c0,0.9-0.9,1.4-2.1,1.4c-1.4,0-2.4-0.8-2.4-1.8h-3.2c0.1,2.7,2.2,4.3,5.4,4.3c3.2,0,5.5-1.5,5.5-4
		C91.4,31.1,84,33,84,30.7L84,30.7z"/>
	<path class="st0" d="M109.1,32.6v2.6h3.1c-0.5,1.2-1.6,2-3.1,2c-2,0-3.5-1.6-3.5-3.9c0-2.2,1.5-3.8,3.5-3.8c1.4,0,2.4,0.7,3,1.8
		h3.3c-0.7-2.6-3.2-4.5-6.3-4.5c-3.9,0-6.7,2.7-6.7,6.5c0,3.8,2.8,6.5,6.7,6.5c3.9,0,6.6-2.7,6.6-6.5c0-0.3,0-0.6,0-0.8H109.1z"/>
	<polygon class="st0" points="127.8,32 122.8,32 122.8,27 119.7,27 119.7,39.7 122.8,39.7 122.8,34.8 127.8,34.8 127.8,39.7 
		130.9,39.7 130.9,27 127.8,27 	"/>
	<polygon class="st0" points="134.2,29.8 137.7,29.8 137.7,39.7 140.8,39.7 140.8,29.8 144.3,29.8 144.3,27 134.2,27 	"/>
	<polygon class="st0" points="260.6,39.7 269.1,39.7 269.1,38.4 262.1,38.4 262.1,34 268.5,34 268.5,32.7 262.1,32.7 262.1,28.5 
		269.1,28.5 269.1,27.2 260.6,27.2 	"/>
	<polygon class="st0" points="304.9,39.7 313.4,39.7 313.4,38.4 306.4,38.4 306.4,34 312.8,34 312.8,32.7 306.4,32.7 306.4,28.5 
		313.4,28.5 313.4,27.2 304.9,27.2 	"/>
	<rect x="298.5" y="27.2" class="st0" width="1.5" height="12.6"/>
	<path class="st0" d="M210,33.8h-3.3v-5.3h3.3c1.6,0,2.7,1,2.7,2.6C212.7,32.7,211.6,33.8,210,33.8L210,33.8z M210.2,27.2
		L210.2,27.2h-4.9v12.6h1.5v-4.6h3.5c2.4,0,4.1-1.6,4.1-4C214.2,28.7,212.6,27.2,210.2,27.2L210.2,27.2z"/>
	<polygon class="st0" points="285.4,28.5 289.4,28.5 289.4,39.7 290.9,39.7 290.9,28.5 294.9,28.5 294.9,27.2 285.4,27.2 	"/>
	<path class="st0" d="M318.5,30.5c0-1.4,1.1-2.2,2.9-2.2c1.8,0,2.9,0.9,2.9,2.6h1.4c-0.1-2.3-1.8-3.8-4.4-3.8
		c-2.6,0-4.4,1.3-4.4,3.5c0,4.6,7.6,2.2,7.6,5.7c0,1.4-1.3,2.4-3.1,2.4c-2.1,0-3.3-1.2-3.3-2.8h-1.5c0.1,2.4,1.8,4,4.8,4
		c2.8,0,4.7-1.4,4.7-3.7C326,31.4,318.5,33.9,318.5,30.5L318.5,30.5z"/>
	<path class="st0" d="M237.1,38.5c-2.9,0-5-2.2-5-5.1c0-2.9,2.1-5.1,5-5.1c2.9,0,5,2.1,5,5.1C242.1,36.4,240,38.5,237.1,38.5
		L237.1,38.5z M237.1,27L237.1,27c-3.8,0-6.5,2.7-6.5,6.4c0,3.7,2.7,6.5,6.5,6.5s6.5-2.7,6.5-6.5C243.6,29.7,240.9,27,237.1,27
		L237.1,27z"/>
	<path class="st0" d="M219.5,33.4v-4.9h3.7c1.5,0,2.5,1,2.5,2.4c0,1.5-1,2.5-2.5,2.5H219.5z M227.1,30.9L227.1,30.9
		c0-2.2-1.6-3.7-3.9-3.7H218v12.6h1.5v-5.1h3l3.3,5.1h1.7l-3.4-5.1C225.9,34.3,227.1,32.9,227.1,30.9L227.1,30.9z"/>
	<path class="st0" d="M252.7,33.8h-3.3v-5.3h3.3c1.6,0,2.7,1,2.7,2.6C255.3,32.7,254.3,33.8,252.7,33.8L252.7,33.8z M252.8,27.2
		L252.8,27.2h-4.9v12.6h1.5v-4.6h3.5c2.4,0,4.1-1.6,4.1-4C256.8,28.7,255.2,27.2,252.8,27.2L252.8,27.2z"/>
	<path class="st0" d="M274.7,33.4v-4.9h3.7c1.5,0,2.5,1,2.5,2.4c0,1.5-1,2.5-2.5,2.5H274.7z M282.4,30.9L282.4,30.9
		c0-2.2-1.6-3.7-3.9-3.7h-5.3v12.6h1.5v-5.1h2.9l3.3,5.1h1.7l-3.4-5.1C281.1,34.3,282.4,32.9,282.4,30.9L282.4,30.9z"/>
	<path class="st0" d="M15.2,55c-1-1.7-1.5-3.7-1.5-5.9H0c0.1,2.6,0.5,5.1,1.2,7.3C5.7,55.8,10.4,55.4,15.2,55L15.2,55z"/>
	<path class="st0" d="M41,51.6c0,1.3-0.3,2.6-0.8,3.7c4.8,0.4,9.4,1,13.9,1.8c0.5-1.8,0.8-3.8,0.8-6c0-26.7-39.1-14.8-39.1-30.4
		c0-5.6,4.8-9.2,11.5-9.2c7.5,0,12.4,4.5,12.6,11.5h13.2C52.9,9.2,42.3,0,27.7,0C12.6,0,1.9,8.4,1.9,21.7C1.9,47.8,41,36.3,41,51.6
		L41,51.6z"/>
</g>
</svg>
