<?xml version="1.0" encoding="utf-8"?>
<!-- Generator: Adobe Illustrator 24.0.1, SVG Export Plug-In . SVG Version: 6.00 Build 0)  -->
<svg version="1.1" id="Layer_1" xmlns="http://www.w3.org/2000/svg" xmlns:xlink="http://www.w3.org/1999/xlink" x="0px" y="0px"
	 viewBox="0 0 91.6 63.6" style="enable-background:new 0 0 91.6 63.6;" xml:space="preserve">
<style type="text/css">
	.st0{fill:#FFFFFF;}
</style>
<g>
	<path class="st0" d="M1.3,60.7c0.2,0,0.3,0,0.5-0.1c0.1,0,0.2-0.1,0.3-0.1c0,0,0.1-0.1,0.1-0.1c0.1,0,0.1-0.1,0.1-0.2
		c0-0.1,0.1-0.1,0.1-0.3c0-0.1,0-0.3,0-0.4c0-0.2,0-0.3-0.1-0.5c-0.1-0.1-0.1-0.2-0.2-0.3c-0.1-0.1-0.2-0.1-0.3-0.1
		c-0.1-0.1-0.3-0.1-0.4-0.1c0,0-0.1,0-0.1,0c-0.1,0-0.1,0-0.1,0v2.1H1.3z M1.5,61.3H1.2v2.2H0.1v-5.4c0.2,0,0.5,0,0.7,0
		c0.3,0,0.5,0,0.8,0c0.7,0,1.1,0.1,1.4,0.4c0.3,0.2,0.5,0.6,0.5,1.1c0,0.2,0,0.4-0.1,0.6c-0.1,0.2-0.1,0.3-0.2,0.5
		c-0.1,0.1-0.2,0.2-0.3,0.3C2.8,61,2.7,61,2.5,61.1c0.2,0.3,0.3,0.5,0.5,0.8c0.1,0.3,0.3,0.5,0.4,0.7c0.1,0.2,0.3,0.3,0.4,0.4
		c0.1,0.1,0.3,0.2,0.5,0.2h0.1v0.3c-0.1,0-0.2,0.1-0.3,0.1c-0.1,0-0.3,0-0.4,0c-0.2,0-0.4,0-0.5-0.1c-0.1-0.1-0.3-0.1-0.4-0.2
		c-0.1-0.1-0.3-0.3-0.4-0.5c-0.1-0.2-0.3-0.5-0.5-0.9L1.5,61.3z"/>
	<polygon class="st0" points="10.2,63.5 7.1,63.5 7.1,58.1 10.1,58.1 10,58.6 8.1,58.7 8.1,60.4 9.9,60.5 9.9,60.9 8.1,61 8.1,62.9 
		10.2,63 	"/>
	<path class="st0" d="M15.8,61.2L15,58.8l-0.8,2.3H15.8z M16.6,63.5L16,61.7l-2,0l-0.6,1.8h-0.7l2.1-5.4l1-0.2l1.9,5.5H16.6z"/>
	<polygon class="st0" points="20.6,63.5 20.6,58.1 21.6,58.1 21.6,63 23.6,63 23.5,63.5 	"/>
	<polygon class="st0" points="33.5,63.5 30.3,63.5 30.3,58.1 33.4,58.1 33.3,58.6 31.4,58.7 31.4,60.4 33.2,60.5 33.2,60.9 31.4,61 
		31.4,62.9 33.5,63 	"/>
	<path class="st0" d="M39.7,61.9c0,0.2,0,0.4-0.1,0.6c-0.1,0.2-0.2,0.4-0.4,0.5c-0.2,0.2-0.4,0.3-0.7,0.4c-0.3,0.1-0.5,0.1-0.9,0.1
		c-0.2,0-0.3,0-0.5,0c-0.1,0-0.3,0-0.4-0.1c-0.1,0-0.3-0.1-0.4-0.1c-0.1-0.1-0.2-0.1-0.3-0.2l0.3-0.8c0.1,0.1,0.2,0.1,0.3,0.2
		c0.1,0.1,0.3,0.1,0.4,0.2c0.1,0,0.3,0.1,0.5,0.1c0.1,0,0.3,0.1,0.4,0.1c0.1,0,0.3,0,0.3,0c0.1,0,0.2-0.1,0.3-0.1
		c0.1,0,0.1-0.1,0.2-0.2c0.1-0.1,0.1-0.3,0.1-0.5s-0.1-0.3-0.2-0.5c-0.1-0.1-0.3-0.2-0.5-0.3c-0.2-0.1-0.4-0.1-0.6-0.2
		c-0.2-0.1-0.4-0.2-0.6-0.3c-0.2-0.1-0.3-0.3-0.5-0.5c-0.1-0.2-0.2-0.5-0.2-0.8c0-0.2,0-0.3,0.1-0.5c0.1-0.2,0.2-0.3,0.4-0.5
		c0.2-0.1,0.4-0.3,0.6-0.4c0.2-0.1,0.5-0.1,0.8-0.1c0.3,0,0.5,0,0.7,0c0.2,0,0.5,0.1,0.7,0.1L39.3,59c-0.1,0-0.2-0.1-0.3-0.1
		c-0.1,0-0.3-0.1-0.4-0.1c-0.1,0-0.3,0-0.4-0.1c-0.1,0-0.2,0-0.3,0c-0.1,0-0.2,0-0.3,0c-0.1,0-0.2,0-0.3,0.1c-0.1,0-0.1,0.1-0.1,0.2
		c0,0.1-0.1,0.2-0.1,0.3c0,0.1,0.1,0.3,0.1,0.3c0.1,0.1,0.2,0.2,0.3,0.2c0.1,0.1,0.3,0.1,0.4,0.2c0.1,0.1,0.3,0.1,0.5,0.2
		c0.2,0.1,0.3,0.1,0.5,0.2c0.1,0.1,0.3,0.2,0.4,0.3c0.1,0.1,0.2,0.3,0.3,0.5C39.7,61.5,39.7,61.7,39.7,61.9L39.7,61.9z"/>
	<polygon class="st0" points="43.9,63.5 43.9,58.7 42.2,58.6 42.3,58.1 46.5,58.1 46.5,58.6 44.9,58.7 44.9,63.5 	"/>
	<path class="st0" d="M51.9,61.2l-0.8-2.3l-0.8,2.3H51.9z M52.7,63.5l-0.6-1.8l-2,0l-0.6,1.8h-0.7l2.1-5.4l1-0.2l1.9,5.5H52.7z"/>
	<polygon class="st0" points="57.7,63.5 57.7,58.7 56.1,58.6 56.2,58.1 60.4,58.1 60.3,58.6 58.8,58.7 58.8,63.5 	"/>
	<polygon class="st0" points="66.4,63.5 63.2,63.5 63.2,58.1 66.3,58.1 66.2,58.6 64.3,58.7 64.3,60.4 66.1,60.5 66.1,60.9 64.3,61 
		64.3,62.9 66.4,63 	"/>
	<rect x="73.3" y="58.1" class="st0" width="1" height="5.4"/>
	<path class="st0" d="M82,63.6l-3.7-3.8h0c0,0.3,0,0.6,0,0.9c0,0.1,0,0.2,0,0.3c0,0.1,0,0.2,0,0.3c0,0.1,0,0.2,0,0.3
		c0,0.1,0,0.1,0,0.1v1.8h-0.6v-5.4h0.5l3.7,3.8c0-0.3,0-0.6,0-0.8c0-0.1,0-0.2,0-0.3c0-0.1,0-0.2,0-0.3c0-0.1,0-0.2,0-0.3
		c0-0.1,0-0.1,0-0.2v-1.8h0.6v5.4H82z"/>
	<path class="st0" d="M88,63.6c-0.4,0-0.8-0.1-1-0.2c-0.3-0.1-0.5-0.3-0.7-0.6c-0.2-0.3-0.3-0.6-0.4-0.9c-0.1-0.3-0.1-0.7-0.1-1.1
		c0-0.3,0.1-0.7,0.1-0.9c0.1-0.3,0.2-0.5,0.3-0.7c0.1-0.2,0.3-0.4,0.5-0.5c0.2-0.1,0.4-0.3,0.6-0.3c0.2-0.1,0.4-0.1,0.6-0.2
		c0.2-0.1,0.4-0.1,0.6-0.1c0.1,0,0.3,0,0.4,0s0.3,0,0.4,0c0.1,0,0.3,0,0.4,0.1c0.1,0,0.2,0,0.3,0L89.7,59c-0.1,0-0.2-0.1-0.3-0.1
		s-0.3-0.1-0.4-0.1c-0.1,0-0.3,0-0.4-0.1c-0.2,0-0.3,0-0.4,0c-0.1,0-0.2,0-0.3,0c-0.1,0-0.2,0-0.2,0c-0.1,0-0.1,0.1-0.2,0.1
		s-0.1,0.1-0.2,0.1c-0.2,0.1-0.3,0.3-0.3,0.7c-0.1,0.3-0.1,0.7-0.1,1.2c0,0.7,0.1,1.3,0.3,1.7c0.2,0.4,0.6,0.5,1,0.5
		c0.3,0,0.6,0,0.9-0.1c0.3,0,0.6-0.1,0.8-0.2v0.5c-0.1,0.1-0.3,0.1-0.4,0.2c-0.2,0.1-0.3,0.1-0.5,0.1c-0.2,0-0.3,0.1-0.5,0.1
		C88.3,63.6,88.2,63.6,88,63.6L88,63.6z"/>
	<polygon class="st0" points="90.9,62.2 91.6,62.9 91.6,62.9 90.9,63.6 90.2,62.9 	"/>
	<polygon class="st0" points="46.1,48.4 43.3,48.4 43.3,45.1 40.5,45.1 40.5,54.7 43.3,54.7 43.3,50.9 46.1,50.9 46.1,54.7 49,54.7 
		49,45.1 46.1,45.1 	"/>
	<path class="st0" d="M57.4,49.9c0,1.9-0.5,2.6-1.6,2.6s-1.6-0.7-1.6-2.6c0-1.9,0.5-2.6,1.6-2.6S57.4,48,57.4,49.9L57.4,49.9z
		 M55.8,44.9c-3,0-4.5,1.7-4.5,5c0,3.3,1.5,4.9,4.5,4.9c3,0,4.5-1.7,4.5-4.9C60.2,46.6,58.7,44.9,55.8,44.9L55.8,44.9z"/>
	<path class="st0" d="M68,51.3c0,0.7-0.5,1.1-1.4,1.1s-1.4-0.4-1.4-1.1v-6.2h-2.8v6.5c0,1.9,1.6,3.2,4.2,3.2c2.6,0,4.2-1.2,4.2-3.2
		v-6.5H68V51.3z"/>
	<path class="st0" d="M77.2,48.5c-0.8-0.3-1.2-0.4-1.2-0.7c0-0.1,0-0.4,0.9-0.4c0.9,0,1.8,0.2,2.9,0.7l0.2,0.1v-2.5L80,45.6
		c-1.2-0.5-2.1-0.7-3.1-0.7c-2.3,0-3.9,1.2-3.9,2.9c0,2.1,2,2.7,3.6,3.2c1.1,0.3,1.4,0.5,1.4,0.8c0,0.1,0,0.5-1,0.5
		c-0.7,0-2.4-0.4-3.7-1.4l-0.3-0.2v2.8l0.1,0.1c0.8,0.5,2.1,1.1,3.9,1.1c2.5,0,4.1-1.2,4.1-3C81,49.7,78.9,49,77.2,48.5L77.2,48.5z"
		/>
	<path class="st0" d="M90.3,52.2c-1,0.1-2,0.2-3.6,0.2c-1.4,0-1.4-0.6-1.4-0.7c0-0.5,0.5-0.7,1.4-0.7h3.1v-2.4h-3.1
		c-1.1,0-1.1-0.4-1.1-0.6c0-0.4,0.4-0.5,1.1-0.5c1.2,0,2,0.1,2.9,0.2l0.6,0.1v-2.4l-0.2,0c-1.1-0.1-1.9-0.2-3.3-0.2
		c-2.5,0-3.9,1-3.9,2.7c0,0.9,0.4,1.5,1,2c-0.8,0.5-1.3,1.3-1.3,2.2c0,1.4,1.1,2.9,4.2,2.9c1.3,0,2.2-0.1,3-0.2
		c0.2,0,0.4-0.1,0.6-0.1l0.1,0v-2.4L90.3,52.2z"/>
	<path class="st0" d="M38.2,46.8V45h-3.5v-3.4l-2.2,0.9V45h-1.7v1.8h1.7v4.1c0,1.2,0.1,2.2,0.6,3c0.5,0.8,1.4,1.2,2.7,1.2h0.1
		c0.6,0,1.4-0.2,2.1-0.5l0.2-0.1v-2l-0.4,0.1c-0.6,0.2-1.2,0.4-1.6,0.4c-0.7,0-1-0.1-1.2-0.4c-0.2-0.3-0.3-0.8-0.3-1.8v-4.1H38.2z
		 M27,52.4c-0.4,0.5-1,0.8-1.8,0.8c-0.9,0-1.4-0.3-1.8-0.8c-0.4-0.5-0.6-1.4-0.6-2.5c0-1.1,0.2-2,0.6-2.5c0.4-0.5,0.9-0.8,1.8-0.8
		c0.9,0,1.4,0.3,1.8,0.8c0.4,0.5,0.6,1.3,0.6,2.5C27.5,51,27.3,51.8,27,52.4L27,52.4z M25.1,44.7c-1.4,0-2.6,0.4-3.4,1.3
		c-0.8,0.9-1.2,2.2-1.2,3.9c0,1.6,0.4,2.9,1.2,3.8c0.8,0.9,2,1.3,3.4,1.3l0,0c1.4,0,2.6-0.4,3.4-1.3c0.8-0.9,1.2-2.2,1.2-3.8
		c0-1.7-0.4-3-1.2-3.9C27.8,45.2,26.6,44.7,25.1,44.7L25.1,44.7z M16.2,40.5v14.3h2.2V39.5L18,39.7L16.2,40.5z M10.7,42.7h2.2v-2.4
		h-2.2V42.7z M10.7,45.2v9.6h2.2V44.4l-0.4,0.2L10.7,45.2z M5.9,47c-0.4,0.5-1.1,0.7-2.2,0.7H2.2v-5.4h1.5c1.1,0,1.8,0.3,2.2,0.7
		c0.4,0.4,0.7,1.1,0.7,2S6.3,46.6,5.9,47L5.9,47z M3.7,40.3H0v14.5h2.2v-5.2h1.5c1.6,0,2.9-0.4,3.8-1.2c0.9-0.8,1.3-2,1.3-3.4
		c0-1.4-0.4-2.6-1.3-3.4C6.5,40.8,5.3,40.3,3.7,40.3L3.7,40.3z"/>
	<path class="st0" d="M30.6,14.4l-4,4l4,3.9c-0.3-1.2-0.5-2.6-0.5-3.9C30,17,30.2,15.7,30.6,14.4L30.6,14.4z"/>
	<path class="st0" d="M41,32.8l4,4l3.9-4c-1.2,0.4-2.6,0.5-3.9,0.5S42.3,33.2,41,32.8L41,32.8z"/>
	<path class="st0" d="M59.4,22.3l3.9-3.9l-3.9-4c0.3,1.2,0.5,2.6,0.5,4C60,19.8,59.8,21.1,59.4,22.3L59.4,22.3z"/>
	<path class="st0" d="M48.9,4L45,0l-4,4c1.3-0.4,2.6-0.5,4-0.5S47.7,3.6,48.9,4L48.9,4z"/>
	<path class="st0" d="M45,31.4c7.2,0,13-5.8,13-13c0-7.2-5.8-13-13-13c-3.5,0-6.7,1.4-9.2,3.8c-2.5,2.5-3.8,5.7-3.8,9.2
		c0,3.5,1.4,6.7,3.8,9.2C38.2,30,41.5,31.4,45,31.4L45,31.4z M34,18.4c0-2.9,1.1-5.7,3.2-7.8C39.3,8.5,42,7.4,45,7.4
		c6.1,0,11,4.9,11,11c0,6.1-5,11-11,11c-2.9,0-5.7-1.2-7.8-3.2C35.1,24.1,34,21.3,34,18.4L34,18.4z"/>
	<path class="st0" d="M48.8,23.5h-7.5v-7.7l3.8-3.8l3.8,3.8V23.5z M53.5,18l-2.9-2.9l0,0h0l-4.9-4.9L45,9.5l-0.7,0.6l-4.9,4.9h0l0,0
		L36.5,18l1.3,1.3l1.7-1.7v7.7h11.2v-7.7l1.7,1.7L53.5,18z"/>
	<polygon class="st0" points="46.5,21.1 43.5,21.1 43.5,16.5 44.9,15.2 46.5,16.5 	"/>
</g>
</svg>
