<?xml version="1.0" encoding="utf-8"?>
<!-- Generator: Adobe Illustrator 24.0.1, SVG Export Plug-In . SVG Version: 6.00 Build 0)  -->
<svg version="1.1" id="Layer_1" xmlns="http://www.w3.org/2000/svg" xmlns:xlink="http://www.w3.org/1999/xlink" x="0px" y="0px"
	 viewBox="0 0 34.9 34.9" style="enable-background:new 0 0 34.9 34.9;" xml:space="preserve">
<style type="text/css">
	.st0{fill-rule:evenodd;clip-rule:evenodd;fill:#0F51A4;}
	.st1{fill:#FEFEFE;}
</style>
<g>
	<path class="st0" d="M17.5,34.9c9.6,0,17.4-7.8,17.4-17.4S27.1,0,17.5,0S0,7.9,0,17.5S7.9,34.9,17.5,34.9L17.5,34.9z"/>
	<path class="st1" d="M12.3,23c0-0.5-0.4-1-1-1s-1,0.5-1,1c0,0.5,0.4,1,1,1S12.3,23.6,12.3,23L12.3,23z M8.8,23v-2.9
		c0.6,0.5,1.3,0.8,2.2,0.8h13c0.8,0,1.6-0.3,2.2-0.8V23c0,1.2-1,2.2-2.2,2.2H11C9.8,25.2,8.8,24.2,8.8,23L8.8,23z M10.7,5.4h13.5
		c1,0,1.9,0.9,1.9,1.9v1.5H8.8V7.3C8.8,6.3,9.7,5.4,10.7,5.4L10.7,5.4z M8.8,9.9h17.3v7.7c0,1.2-1,2.2-2.2,2.2H11
		c-1.2,0-2.2-1-2.2-2.2V9.9z M10.5,27.7l0.8-1.4h12.3l0.8,1.4H10.5z M7.7,31.3c0.1,0.1,0.2,0.1,0.3,0.1c0.2,0,0.4-0.1,0.5-0.3
		l1.3-2.2h15.3l1.3,2.2c0.1,0.2,0.3,0.3,0.5,0.3c0.1,0,0.2,0,0.3-0.1c0.3-0.1,0.3-0.5,0.2-0.8l-2.6-4.3c1.4-0.4,2.4-1.7,2.4-3.2V7.3
		c0-1.6-1.4-3-3-3H10.7c-1.7,0-3,1.4-3,3V23c0,1.5,1,2.8,2.4,3.2l-2.6,4.3C7.3,30.8,7.4,31.1,7.7,31.3L7.7,31.3z M23.6,24
		c0.5,0,1-0.4,1-1c0-0.5-0.5-1-1-1c-0.5,0-1,0.5-1,1C22.6,23.6,23.1,24,23.6,24L23.6,24z"/>
</g>
</svg>
