<?xml version="1.0" encoding="utf-8"?>
<!-- Generator: Adobe Illustrator 24.0.1, SVG Export Plug-In . SVG Version: 6.00 Build 0)  -->
<svg version="1.1" id="Layer_1" xmlns="http://www.w3.org/2000/svg" xmlns:xlink="http://www.w3.org/1999/xlink" x="0px" y="0px"
	 viewBox="0 0 93.6 118.7" style="enable-background:new 0 0 93.6 118.7;" xml:space="preserve">
<style type="text/css">
	.st0{fill-rule:evenodd;clip-rule:evenodd;fill:#646464;}
	.st1{fill-rule:evenodd;clip-rule:evenodd;fill:#FFFFFF;stroke:#C8C8C8;stroke-width:0.2268;stroke-miterlimit:10;}
	.st2{fill-rule:evenodd;clip-rule:evenodd;fill:#CD1E25;}
	.st3{fill-rule:evenodd;clip-rule:evenodd;fill:#93171A;}
</style>
<g>
	<polygon class="st0" points="3.7,3.5 93.6,3.5 93.6,93.5 39.1,93.5 3.7,118.7 16.3,93.5 3.7,93.5 	"/>
	<polygon class="st1" points="0.3,0.1 90.2,0.1 90.2,90 35.7,90 0.3,115.3 12.8,90 0.3,90 	"/>
	<polygon class="st2" points="31.4,20.6 23.8,25.5 23.8,46.9 45.2,33.1 45.2,22.4 31.4,31.3 	"/>
	<polygon class="st3" points="59,20.6 66.6,25.5 66.6,46.9 45.2,33.1 45.1,33.2 45.1,22.5 45.2,22.4 59,31.3 	"/>
	<path d="M13.7,58.8V53h-1v5.8c0,1.4-0.7,2.1-1.7,2.1c-0.9,0-1.5-0.4-2-1.2l-0.7,0.6c0.5,0.9,1.4,1.5,2.7,1.5
		C12.5,61.8,13.7,60.8,13.7,58.8L13.7,58.8z M23.6,53h-1v5c0,1.9-1,2.9-2.6,2.9c-1.7,0-2.7-1-2.7-2.9v-5h-1v5c0,2.5,1.5,3.8,3.6,3.8
		c2.2,0,3.6-1.3,3.6-3.9V53H23.6z M27.1,55.2c0-0.8,0.7-1.4,1.8-1.4c0.9,0,1.7,0.3,2.5,1L32,54c-0.9-0.7-1.8-1.1-3.1-1.1
		c-1.6,0-2.9,1-2.9,2.4s0.9,2.1,2.9,2.5c1.8,0.4,2.3,0.9,2.3,1.7c0,0.9-0.8,1.5-1.9,1.5c-1.2,0-2.1-0.4-3-1.2l-0.6,0.7
		c1,0.9,2.2,1.4,3.5,1.4c1.7,0,3-1,3-2.5c0-1.3-0.9-2-2.8-2.5C27.5,56.5,27.1,56,27.1,55.2L27.1,55.2z M37.9,53.9h2.9V53H34v0.9h2.9
		v7.8h1C37.9,61.7,37.9,53.9,37.9,53.9z"/>
	<path d="M47.5,59.5L45.4,53h-1.7l3.1,8.8h1.3l2.2-6.3l2.1,6.3h1.3l3-8.8h-1.6L53,59.5L50.9,53h-1.3L47.5,59.5z M65.2,53h-6.5v8.7
		h6.5v-1.4h-5V58h4.4v-1.4h-4.4v-2.3h4.9L65.2,53L65.2,53z M68.8,55.3c0-0.6,0.5-1,1.4-1c0.8,0,1.6,0.3,2.4,0.9l0.8-1.2
		c-0.9-0.7-1.9-1.1-3.2-1.1c-1.7,0-3,1-3,2.6s1,2.2,2.9,2.6c1.6,0.4,2,0.7,2,1.4s-0.6,1.1-1.5,1.1c-1.1,0-1.9-0.4-2.7-1.1L67,60.4
		c1,0.9,2.3,1.4,3.6,1.4c1.8,0,3.1-1,3.1-2.6c0-1.4-1-2.1-2.8-2.6C69.2,56.3,68.8,56,68.8,55.3L68.8,55.3z M79.5,54.4h2.7V53h-7.1
		v1.4h2.7v7.3h1.6v-7.3H79.5z"/>
	<path d="M24.6,68.1c0-0.7-0.5-1.4-1.4-1.4c-0.8,0-1.4,0.6-1.4,1.4c0,0.7,0.5,1.4,1.4,1.4S24.6,68.9,24.6,68.1L24.6,68.1z
		 M24.3,68.1c0,0.6-0.5,1.1-1,1.1s-1-0.5-1-1.1s0.4-1.1,1-1.1S24.3,67.5,24.3,68.1L24.3,68.1z M28.2,68.9l-1.7-2.1h-0.3v2.7h0.3
		v-2.2l1.7,2.2h0.2v-2.7h-0.3L28.2,68.9L28.2,68.9z M32.4,68l1.2-1.2h-0.4l-1.5,1.6v-1.6h-0.3v2.7h0.3v-0.7l0.6-0.6l1,1.3h0.4
		L32.4,68z M35.1,66.8v2.7h0.3v-2.7H35.1z M39.1,68.9l-1.7-2.1h-0.3v2.7h0.3v-2.2l1.7,2.2h0.3v-2.7h-0.3V68.9z M43.4,69.1v-1h-1.1
		v0.3h0.8V69c-0.2,0.2-0.5,0.3-0.8,0.3c-0.7,0-1-0.5-1-1.1s0.4-1.1,1-1.1c0.4,0,0.6,0.1,0.8,0.3l0.2-0.2c-0.3-0.2-0.5-0.3-1-0.3
		c-0.8,0-1.3,0.6-1.3,1.4s0.5,1.4,1.4,1.4C42.9,69.5,43.2,69.3,43.4,69.1L43.4,69.1z M48.2,66.8h-1.9v2.7h1.9v-0.3h-1.6v-0.9H48V68
		h-1.4v-0.9h1.6C48.2,67.1,48.2,66.8,48.2,66.8z M52.1,68.1c0-0.8-0.6-1.3-1.4-1.3h-0.9v2.7h0.9C51.6,69.5,52.1,68.9,52.1,68.1
		L52.1,68.1z M51.8,68.1c0,0.6-0.4,1-1.1,1h-0.6V67h0.6C51.4,67.1,51.8,67.5,51.8,68.1L51.8,68.1z M54.5,69l-0.7-2.2h-0.3l1,2.7h0.2
		l0.7-2.1l0.7,2.1h0.3l0.9-2.7H57L56.2,69l-0.7-2.2h-0.3L54.5,69z M59.7,66.8h-0.3l-1.2,2.7h0.3l0.3-0.7h1.4l0.3,0.7h0.3L59.7,66.8z
		 M60.2,68.5H59l0.6-1.4L60.2,68.5z M64.6,69.5l-0.8-1.1c0.4-0.1,0.7-0.3,0.7-0.8s-0.4-0.8-1-0.8h-1.1v2.7h0.3v-1h0.7l0.8,1
		C64.2,69.5,64.6,69.5,64.6,69.5z M64.2,67.6c0,0.3-0.3,0.5-0.7,0.5h-0.8V67h0.8C64,67.1,64.2,67.3,64.2,67.6L64.2,67.6z M68.5,68.1
		c0-0.8-0.6-1.3-1.4-1.3h-0.9v2.7h0.9C67.9,69.5,68.5,68.9,68.5,68.1L68.5,68.1z M68.2,68.1c0,0.6-0.4,1-1.1,1h-0.6V67h0.6
		C67.8,67.1,68.2,67.5,68.2,68.1L68.2,68.1z"/>
</g>
</svg>
