<?xml version="1.0" encoding="utf-8"?>
<!-- Generator: Adobe Illustrator 24.0.1, SVG Export Plug-In . SVG Version: 6.00 Build 0)  -->
<svg version="1.1" id="Layer_1" xmlns="http://www.w3.org/2000/svg" xmlns:xlink="http://www.w3.org/1999/xlink" x="0px" y="0px"
	 viewBox="0 0 117.5 48.7" style="enable-background:new 0 0 117.5 48.7;" xml:space="preserve">
<style type="text/css">
	.st0{fill:#68995C;}
</style>
<g>
	<path class="st0" d="M29.4,17.6c-0.6-6.5-5.2-11.3-10.7-12.9c-1.3-0.4-2.6-0.6-3.9-0.6c-1.3,0-2.6,0.2-4,0.6
		C5.2,6.3,0.7,11.1,0.1,17.6c-0.2,2,0,4.1,0.5,6c0.6,2.8,1.8,5.5,3.2,8c2.8,4.9,6.5,9.1,10.7,12.8c0.1,0.1,0.2,0.1,0.3,0.2
		c0.1-0.1,0.2-0.1,0.3-0.2c4.2-3.8,7.9-8,10.7-12.8c1.4-2.5,2.6-5.1,3.2-8C29.4,21.7,29.6,19.6,29.4,17.6L29.4,17.6z M14.7,30.4
		L14.7,30.4c-6.2,0-11.4-5.2-11.3-11.6C3.5,13,8.1,7.6,14.7,7.5C21.3,7.6,26,13,26.1,18.8C26.2,25.1,20.9,30.4,14.7,30.4L14.7,30.4z
		"/>
	<path class="st0" d="M47.3,11.5c-0.4,0.3-0.8,0.6-1.4,0.8c-0.5,0.2-1,0.3-1.6,0.3c-0.7,0-1.3-0.2-1.9-0.6s-1-0.9-1.3-1.6
		c-1,0-1.9-0.3-2.7-0.7c-0.8-0.5-1.4-1.1-1.9-1.9C36.2,7,36,6.1,36,5.2s0.2-1.8,0.7-2.6c0.5-0.8,1.1-1.4,2-1.8
		C39.5,0.2,40.4,0,41.4,0s2,0.2,2.8,0.7s1.5,1.1,2,1.8c0.5,0.8,0.7,1.7,0.7,2.6c0,1.1-0.3,2.1-0.9,3C45.3,9,44.6,9.6,43.6,10
		c0.4,0.4,0.7,0.6,1.1,0.6c0.2,0,0.5-0.1,0.8-0.2c0.3-0.1,0.6-0.3,0.9-0.6L47.3,11.5z M38.7,5.2c0,0.5,0.1,1,0.4,1.5
		c0.3,0.5,0.6,0.8,1,1.1s0.9,0.4,1.4,0.4c0.5,0,1-0.1,1.4-0.4c0.4-0.3,0.7-0.6,1-1.1c0.2-0.5,0.4-1,0.4-1.5c0-0.5-0.1-1-0.4-1.5
		c-0.3-0.5-0.6-0.8-1-1.1c-0.4-0.3-0.9-0.4-1.4-0.4c-0.5,0-1,0.1-1.4,0.4s-0.8,0.6-1,1.1C38.8,4.1,38.7,4.6,38.7,5.2L38.7,5.2z
		 M57.4,2.5v7.7h-2.6V9c-0.5,0.9-1.4,1.4-2.5,1.4c-0.9,0-1.5-0.3-2-0.8c-0.5-0.5-0.7-1.3-0.7-2.2V2.5h2.6v4.2c0,0.4,0.1,0.8,0.3,1
		c0.2,0.3,0.5,0.4,0.9,0.4c0.5,0,0.8-0.2,1-0.5c0.3-0.3,0.4-0.7,0.4-1.2V2.5H57.4z M64.3,2.4c1.2,0,2.2,0.4,2.9,1.1
		c0.7,0.7,1,1.8,1,3.1c0,0.2,0,0.4,0,0.5h-5.4c0.1,0.4,0.3,0.8,0.6,1c0.3,0.3,0.7,0.4,1.1,0.4c0.3,0,0.7-0.1,1-0.2
		c0.3-0.1,0.6-0.3,0.9-0.6l1.3,1.3c-0.4,0.5-0.9,0.8-1.4,1c-0.6,0.2-1.2,0.4-1.9,0.4c-0.9,0-1.6-0.2-2.2-0.5
		c-0.6-0.3-1.1-0.8-1.4-1.4c-0.3-0.6-0.5-1.3-0.5-2.1c0-0.8,0.2-1.5,0.5-2.1c0.3-0.6,0.8-1.1,1.4-1.4C62.8,2.5,63.5,2.4,64.3,2.4
		L64.3,2.4z M65.8,5.7c0-0.5-0.1-0.8-0.4-1.1c-0.3-0.3-0.6-0.4-1-0.4c-0.4,0-0.7,0.1-1,0.4c-0.3,0.3-0.4,0.6-0.5,1.1H65.8z
		 M74.6,2.4c1.3,0,2.2,0.4,2.9,1.1c0.7,0.7,1,1.8,1,3.1c0,0.2,0,0.4,0,0.5h-5.4c0.1,0.4,0.3,0.8,0.7,1c0.3,0.3,0.7,0.4,1.1,0.4
		c0.3,0,0.7-0.1,1-0.2c0.3-0.1,0.6-0.3,0.9-0.6L78,8.9c-0.4,0.5-0.9,0.8-1.4,1c-0.6,0.2-1.2,0.4-1.9,0.4c-0.8,0-1.6-0.2-2.2-0.5
		C71.8,9.5,71.3,9,71,8.4c-0.3-0.6-0.5-1.3-0.5-2.1c0-0.8,0.2-1.5,0.5-2.1c0.3-0.6,0.8-1.1,1.4-1.4C73.1,2.5,73.8,2.4,74.6,2.4
		L74.6,2.4z M76,5.7c0-0.5-0.1-0.8-0.4-1.1c-0.3-0.3-0.6-0.4-1-0.4c-0.4,0-0.8,0.1-1,0.4c-0.3,0.3-0.5,0.6-0.5,1.1H76z M86.5,2.4
		c0.9,0,1.5,0.3,2,0.8c0.5,0.5,0.8,1.3,0.8,2.2v4.9h-2.6V6.1c0-0.5-0.1-0.8-0.3-1c-0.3-0.3-0.6-0.4-1-0.4c-0.4,0-0.8,0.1-1,0.4
		C84.2,5.3,84,5.7,84,6.1v4.1h-2.6V2.5H84v1.2c0.3-0.5,0.6-0.8,1.1-1C85.5,2.5,86,2.4,86.5,2.4L86.5,2.4z M36.6,19.4h7.9v2.1h-5.3
		v1.9H44v2.1h-4.8v1.9h5.5v2.1h-8.1V19.4z M48,18.8h2.6v10.7H48V18.8z M54.1,21.7h2.5v7.8h-2.5V21.7z M55.4,18.1
		c0.4,0,0.7,0.1,1,0.4c0.3,0.3,0.4,0.6,0.4,1s-0.1,0.7-0.4,1c-0.3,0.3-0.6,0.4-1,0.4s-0.7-0.1-1-0.4c-0.3-0.3-0.4-0.6-0.4-1
		s0.1-0.7,0.4-1S55,18.1,55.4,18.1L55.4,18.1z M59.9,21.7l6.8,0v1.5l-3.7,4.3h3.9v2h-7.1v-1.6l3.7-4.3h-3.6V21.7z M73.2,21.6
		c1.1,0,1.9,0.2,2.5,0.7c0.6,0.5,0.9,1.2,0.9,2.1v5h-2.5v-0.9c-0.5,0.7-1.3,1-2.3,1c-0.8,0-1.5-0.2-2-0.7c-0.5-0.4-0.7-1-0.7-1.8
		s0.3-1.3,0.8-1.7c0.5-0.4,1.2-0.6,2.2-0.7h2v-0.1c0-0.4-0.1-0.7-0.4-0.9s-0.6-0.3-1.1-0.3c-0.3,0-0.7,0.1-1.1,0.2
		c-0.4,0.1-0.8,0.3-1.2,0.5l-0.7-1.7c0.7-0.3,1.2-0.5,1.8-0.6C72,21.6,72.6,21.6,73.2,21.6L73.2,21.6z M72.6,27.8
		c0.4,0,0.7-0.1,1-0.3c0.3-0.2,0.5-0.4,0.5-0.7v-0.7h-1.5c-0.7,0-1.1,0.3-1.1,0.8c0,0.3,0.1,0.5,0.3,0.6
		C72,27.7,72.2,27.8,72.6,27.8L72.6,27.8z M84.8,21.6c0.7,0,1.3,0.2,1.9,0.5c0.5,0.3,1,0.8,1.3,1.4c0.3,0.6,0.4,1.3,0.4,2.1
		S88.3,27,88,27.6s-0.7,1-1.2,1.4c-0.5,0.3-1.2,0.5-1.9,0.5c-0.5,0-0.9-0.1-1.3-0.3s-0.7-0.5-1-0.8v1H80V18.8h2.6v3.9
		C83.1,21.9,83.9,21.6,84.8,21.6L84.8,21.6z M84.2,27.4c0.5,0,0.9-0.2,1.2-0.5c0.3-0.3,0.5-0.8,0.5-1.4s-0.2-1-0.5-1.4
		c-0.3-0.4-0.7-0.5-1.2-0.5c-0.5,0-0.9,0.2-1.2,0.5c-0.3,0.3-0.5,0.8-0.5,1.4s0.2,1,0.5,1.4C83.3,27.3,83.7,27.4,84.2,27.4
		L84.2,27.4z M94.8,21.6c1.2,0,2.2,0.4,2.9,1.1c0.7,0.8,1,1.8,1,3.1c0,0.2,0,0.3,0,0.5h-5.4c0.1,0.5,0.3,0.8,0.6,1
		c0.3,0.2,0.7,0.3,1.1,0.3c0.3,0,0.7-0.1,1-0.2s0.6-0.3,0.9-0.6l1.3,1.3c-0.4,0.5-0.9,0.8-1.4,1c-0.6,0.3-1.2,0.4-1.9,0.4
		c-0.9,0-1.6-0.2-2.2-0.5c-0.6-0.3-1.1-0.8-1.4-1.4c-0.3-0.6-0.5-1.3-0.5-2.1s0.2-1.5,0.5-2.1c0.3-0.6,0.8-1.1,1.4-1.4
		C93.3,21.7,94,21.6,94.8,21.6L94.8,21.6z M96.2,24.9c0-0.5-0.1-0.8-0.4-1.1c-0.3-0.3-0.6-0.4-1-0.4c-0.4,0-0.7,0.1-1,0.4
		c-0.3,0.3-0.4,0.7-0.5,1.1H96.2z M106.7,29c-0.3,0.1-0.6,0.3-1,0.4c-0.4,0.1-0.8,0.1-1.1,0.1c-0.8,0-1.4-0.2-1.9-0.7
		c-0.5-0.5-0.7-1-0.7-1.8v-3.3h-1.1V22h1.1v-2.2h2.6V22h2v1.7h-2v2.9c0,0.5,0.2,0.8,0.7,0.8c0.3,0,0.6-0.1,1-0.3L106.7,29z
		 M114.7,21.6c0.9,0,1.6,0.3,2.1,0.8c0.5,0.5,0.8,1.2,0.8,2.2v4.9h-2.6v-4.2c0-0.4-0.1-0.8-0.4-1c-0.2-0.3-0.5-0.4-1-0.4
		c-0.5,0-0.8,0.2-1.1,0.5c-0.3,0.3-0.4,0.8-0.4,1.3v3.8h-2.6V18.8h2.6v4.2c0.3-0.5,0.6-0.8,1-1C113.6,21.7,114.1,21.6,114.7,21.6
		L114.7,21.6z M41,38.6c1.3,0,2.3,0.3,3,0.9c0.7,0.6,1,1.5,1,2.6c0,1.2-0.3,2.1-1,2.7c-0.7,0.7-1.7,1-3,1h-1.8v2.8h-2.6V38.6H41z
		 M40.9,43.7c0.5,0,1-0.1,1.2-0.4c0.3-0.3,0.4-0.7,0.4-1.2c0-0.5-0.1-0.9-0.4-1.1c-0.3-0.3-0.7-0.4-1.2-0.4h-1.7v3.1H40.9z
		 M51.5,40.8c1,0,1.9,0.3,2.5,0.7c0.6,0.5,0.9,1.2,0.9,2.1v5h-2.5v-0.9c-0.5,0.7-1.3,1-2.3,1c-0.8,0-1.5-0.2-2-0.7
		c-0.5-0.5-0.7-1-0.7-1.8c0-0.7,0.3-1.3,0.8-1.7c0.5-0.4,1.2-0.6,2.2-0.6h2v-0.1c0-0.4-0.1-0.7-0.4-0.9c-0.3-0.2-0.6-0.3-1.1-0.3
		c-0.3,0-0.7,0.1-1.1,0.1c-0.4,0.1-0.8,0.3-1.2,0.5l-0.7-1.7c0.6-0.3,1.2-0.5,1.8-0.7C50.3,40.8,50.8,40.8,51.5,40.8L51.5,40.8z
		 M50.8,47c0.4,0,0.7-0.1,1-0.3c0.3-0.2,0.5-0.4,0.5-0.7v-0.7h-1.5c-0.7,0-1.1,0.3-1.1,0.8c0,0.3,0.1,0.5,0.3,0.7
		C50.2,46.9,50.5,47,50.8,47L50.8,47z M60.7,42.2c0.3-0.5,0.6-0.8,1-1c0.4-0.3,0.9-0.4,1.5-0.4v2.3c-0.1,0-0.2,0-0.4,0
		c-0.6,0-1.1,0.1-1.5,0.4c-0.4,0.3-0.6,0.7-0.6,1.2v3.9h-2.6v-7.8h2.6V42.2z M71,48.6l-1.6-2.9l-0.8,0.8v2.1H66V38h2.6v5.5l2.5-2.6
		h2.9l-2.8,3l2.9,4.8H71z"/>
</g>
</svg>
