<?xml version="1.0" encoding="utf-8"?>
<!-- Generator: Adobe Illustrator 23.1.0, SVG Export Plug-In . SVG Version: 6.00 Build 0)  -->
<svg version="1.1" id="Layer_1" xmlns="http://www.w3.org/2000/svg" xmlns:xlink="http://www.w3.org/1999/xlink" x="0px" y="0px"
	 viewBox="0 0 575.9 175.4" style="enable-background:new 0 0 575.9 175.4;" xml:space="preserve">
<path d="M72.1,71.5V31.7h-6.8v39.9c0,9.5-4.9,14.3-11.7,14.3c-6.2,0-10-3-13.6-8.5l-4.8,4.2c3.7,6.1,9.4,10.5,18.4,10.5
	C64.2,92.1,72.1,85.2,72.1,71.5L72.1,71.5z M139.7,31.7H133v34.6c0,13-7,19.7-18,19.7c-11.4,0-18.2-7.2-18.2-20.1V31.7h-6.7v34.6
	c0,16.9,10,25.9,24.7,25.9c14.9,0,24.9-9,24.9-26.4V31.7z M163.9,46.6c0-5.4,4.9-9.7,12.7-9.7c6.1,0,11.7,2,17.2,6.5l3.9-5.2
	c-6-4.8-12.2-7.3-20.9-7.3c-11.3,0-19.6,6.8-19.6,16.4c0,9.9,6.3,14.3,20,17.3c12.5,2.6,15.5,5.8,15.5,11.4c0,6-5.3,10.2-13.3,10.2
	c-8.2,0-14.2-2.8-20.4-8.4l-4.2,4.9c7.1,6.4,14.9,9.5,24.3,9.5c11.8,0,20.4-6.6,20.4-16.9c0-9.2-6.1-14.1-19.4-17
	C166.9,55.5,163.9,52.3,163.9,46.6L163.9,46.6z M237.4,37.9h20v-6.2h-46.8v6.2h20v53.3h6.8V37.9z"/>
<path d="M303.3,75.9l-14.2-44.2h-11.3l20.7,60h9l14.6-42.8l14.6,42.8h9l20.7-60h-11l-14,44.2l-14.6-44.3H318L303.3,75.9z
	 M424.5,31.7h-44.2v59.6h44.6v-9.4h-34.1v-16h29.9v-9.4h-29.9V41h33.7V31.7z M449.2,47.3c0-4,3.6-7.1,9.7-7.1
	c5.4,0,10.8,2.1,16.2,6.1l5.6-7.9c-6.1-4.8-13-7.5-21.6-7.5c-11.8,0-20.3,7-20.3,17.4c0,11.1,7.1,14.8,19.8,17.9
	c11.1,2.6,13.4,4.8,13.4,9.2c0,4.6-4.1,7.6-10.5,7.6c-7.4,0-13.1-2.8-18.8-7.7l-6.3,7.5c7.2,6.4,15.8,9.5,24.9,9.5
	c12.5,0,21.3-6.6,21.3-17.9c0-10-6.6-14.5-19.2-17.5C451.9,54,449.2,52,449.2,47.3L449.2,47.3z M521.8,41.4h18.9v-9.7h-48.4v9.7
	h18.9v49.9h10.5L521.8,41.4L521.8,41.4z"/>
<path d="M146.8,135.2c0-5-3.7-9.4-9.2-9.4s-9.3,4.4-9.3,9.4s3.7,9.3,9.2,9.3C143,144.6,146.8,140.2,146.8,135.2L146.8,135.2z
	 M144.7,135.3c0,4.1-2.9,7.5-7.1,7.5s-7.1-3.4-7.1-7.5s2.9-7.5,7.1-7.5C141.7,127.8,144.7,131.1,144.7,135.3L144.7,135.3z
	 M171.3,140.7l-11.4-14.5H158v18.1h2v-14.9l11.7,14.9h1.6v-18.1h-2V140.7L171.3,140.7z M200.3,134.1l7.8-7.9h-2.6L195.1,137v-10.8
	h-2v18.1h2v-4.8l3.9-3.9l7,8.8h2.6L200.3,134.1z M218.5,126.2v18.1h2.1v-18.1C220.6,126.2,218.5,126.2,218.5,126.2z M246,140.7
	l-11.4-14.5h-1.9v18.1h2v-14.9l11.7,14.9h1.6v-18.1h-2L246,140.7L246,140.7z M275.6,141.9v-7.2h-7.5v1.8h5.5v4.5
	c-1.2,1-3.1,1.8-5.2,1.8c-4.4,0-7.2-3.2-7.2-7.5c0-4.1,2.9-7.5,6.9-7.5c2.6,0,4.1,0.9,5.5,2.1l1.3-1.6c-1.8-1.5-3.7-2.4-6.7-2.4
	c-5.4,0-9.1,4.4-9.1,9.4c0,5.2,3.5,9.3,9.2,9.3C271.4,144.6,273.9,143.4,275.6,141.9L275.6,141.9z M307.9,126.2h-13.1v18.1H308v-1.8
	h-11.2v-6.3h9.9v-1.9h-9.9v-6.2h11.1V126.2z M334.8,135.2c0-5.1-3.9-9-9.6-9h-6.3v18.1h6.3C330.9,144.3,334.8,140.4,334.8,135.2
	L334.8,135.2z M332.7,135.3c0,4-2.9,7.1-7.5,7.1H321v-14.3h4.2C329.8,128.1,332.7,131.2,332.7,135.3L332.7,135.3z M351,141.3
	l-5.2-15.1h-2.2l6.5,18.3h1.7l5-14.7l5,14.7h1.7l6.5-18.3h-2.2l-5.2,15.1l-5-15.1h-1.7L351,141.3z M386.7,126.1h-1.9l-8.2,18.2h2.1
	l2.1-4.8h9.9l2.1,4.8h2.2L386.7,126.1z M389.9,137.7h-8.2l4.1-9.2L389.9,137.7z M420.3,144.3l-5.6-7.4c2.8-0.5,4.9-2.3,4.9-5.3
	c0-3.3-2.6-5.4-6.5-5.4h-7.8v18.1h2.1v-7h5.2l5.2,7H420.3L420.3,144.3z M417.6,131.7c0,2.4-1.9,3.7-4.6,3.7h-5.6v-7.3h5.6
	C415.9,128.1,417.6,129.4,417.6,131.7L417.6,131.7z M446.8,135.2c0-5.1-3.9-9-9.6-9h-6.3v18.1h6.3
	C442.8,144.3,446.8,140.4,446.8,135.2L446.8,135.2z M444.7,135.3c0,4-2.9,7.1-7.5,7.1h-4.3v-14.3h4.3
	C441.7,128.1,444.7,131.2,444.7,135.3L444.7,135.3z"/>
</svg>
