<?xml version="1.0" encoding="utf-8"?>
<!-- Generator: Adobe Illustrator 24.0.1, SVG Export Plug-In . SVG Version: 6.00 Build 0)  -->
<svg version="1.1" id="Layer_1" xmlns="http://www.w3.org/2000/svg" xmlns:xlink="http://www.w3.org/1999/xlink" x="0px" y="0px"
	 viewBox="0 0 474 83" style="enable-background:new 0 0 474 83;" xml:space="preserve">
<g>
	<rect x="233" y="39.3" width="4.5" height="18.5"/>
	<polygon points="256.5,50.7 248.9,39.3 244.1,39.3 244.1,57.7 248.6,57.7 248.6,46.3 256.2,57.7 261,57.7 261,39.3 256.5,39.3 	"/>
	<polygon points="267.7,57.7 280.9,57.7 280.9,53.8 272.2,53.8 272.2,50.3 280.2,50.3 280.2,46.6 272.2,46.6 272.2,43.3 280.9,43.3 
		280.9,39.3 267.7,39.3 	"/>
	<polygon points="219.2,39.3 214.7,39.3 214.7,57.7 228,57.7 228,53.8 219.2,53.8 	"/>
	<rect x="138.7" y="39.3" width="4.5" height="18.5"/>
	<path d="M122.2,44.6c0-1.2,1.1-1.9,2.7-1.9c1.7,0,2.9,1,2.9,2.6h4.5c0-3.7-3.1-6.2-7.4-6.2c-4.4,0-7.5,2.2-7.5,5.8
		c0,6.8,10.7,4.1,10.7,7.5c0,1.2-1.3,2-3.1,2c-2.1,0-3.4-1.1-3.4-2.7h-4.7c0.1,3.9,3.3,6.3,7.9,6.3c4.7,0,8-2.2,8-5.8
		C132.8,45.2,122.2,48,122.2,44.6L122.2,44.6z"/>
	<path d="M158.7,47.4v3.8h4.5c-0.6,1.8-2.4,2.9-4.5,2.9c-3,0-5.1-2.3-5.1-5.6c0-3.2,2.2-5.6,5.1-5.6c2,0,3.5,1.1,4.3,2.7h4.8
		c-1-3.8-4.7-6.5-9.2-6.5c-5.6,0-9.7,4-9.7,9.5s4,9.5,9.7,9.5c5.7,0,9.6-4,9.6-9.5c0-0.4,0-0.9,0-1.1H158.7z"/>
	<polygon points="185.8,46.5 178.5,46.5 178.5,39.3 174,39.3 174,57.7 178.5,57.7 178.5,50.5 185.8,50.5 185.8,57.7 190.3,57.7 
		190.3,39.3 185.8,39.3 	"/>
	<polygon points="195.1,43.3 200.2,43.3 200.2,57.7 204.7,57.7 204.7,43.3 209.8,43.3 209.8,39.3 195.1,39.3 	"/>
	<polygon points="378.9,57.7 391.2,57.7 391.2,55.8 381,55.8 381,49.4 390.4,49.4 390.4,47.6 381,47.6 381,41.4 391.2,41.4 
		391.2,39.5 378.9,39.5 	"/>
	<polygon points="443.3,57.7 455.6,57.7 455.6,55.8 445.5,55.8 445.5,49.4 454.8,49.4 454.8,47.6 445.5,47.6 445.5,41.4 455.6,41.4 
		455.6,39.5 443.3,39.5 	"/>
	<rect x="434" y="39.5" width="2.2" height="18.3"/>
	<path d="M305.3,49.1h-4.8v-7.7h4.8c2.4,0,3.9,1.5,3.9,3.8C309.2,47.5,307.7,49.1,305.3,49.1L305.3,49.1z M305.5,39.5L305.5,39.5
		h-7.2v18.3h2.1V51h5c3.5,0,5.9-2.3,5.9-5.8C311.4,41.8,309.1,39.5,305.5,39.5L305.5,39.5z"/>
	<polygon points="415,41.4 420.8,41.4 420.8,57.7 422.9,57.7 422.9,41.4 428.7,41.4 428.7,39.5 415,39.5 	"/>
	<path d="M463,44.3c0-2,1.7-3.3,4.2-3.3c2.6,0,4.2,1.3,4.3,3.7h2.1c-0.1-3.4-2.6-5.5-6.4-5.5c-3.8,0-6.4,2-6.4,5.2
		c0,6.8,11,3.2,11,8.3c0,2.1-1.9,3.5-4.6,3.5c-3.1,0-4.8-1.8-4.8-4.1h-2.2c0.1,3.5,2.7,5.8,6.9,5.8c4.1,0,6.9-2,6.9-5.3
		C474,45.7,463,49.4,463,44.3L463,44.3z"/>
	<path d="M344.8,56c-4.2,0-7.3-3.1-7.3-7.4c0-4.3,3-7.4,7.3-7.4c4.2,0,7.2,3.1,7.2,7.4C352,52.9,348.9,56,344.8,56L344.8,56z
		 M344.8,39.3L344.8,39.3c-5.5,0-9.5,3.9-9.5,9.3c0,5.4,4,9.4,9.5,9.4c5.5,0,9.4-3.9,9.4-9.4C354.2,43.1,350.2,39.3,344.8,39.3
		L344.8,39.3z"/>
	<path d="M319,48.5v-7.1h5.4c2.2,0,3.6,1.4,3.6,3.5c0,2.2-1.4,3.6-3.6,3.6H319z M330.2,44.9L330.2,44.9c0-3.2-2.2-5.4-5.6-5.4h-7.7
		v18.3h2.1v-7.4h4.3l4.8,7.4h2.4l-4.9-7.5C328.4,49.9,330.2,47.8,330.2,44.9L330.2,44.9z"/>
	<path d="M367.3,49.1h-4.8v-7.7h4.8c2.4,0,3.9,1.5,3.9,3.8C371.2,47.5,369.7,49.1,367.3,49.1L367.3,49.1z M367.5,39.5L367.5,39.5
		h-7.2v18.3h2.2V51h5c3.5,0,5.9-2.3,5.9-5.8C373.4,41.8,371,39.5,367.5,39.5L367.5,39.5z"/>
	<path d="M399.3,48.5v-7.1h5.4c2.2,0,3.6,1.4,3.6,3.5c0,2.2-1.4,3.6-3.6,3.6H399.3z M410.5,44.9L410.5,44.9c0-3.2-2.2-5.4-5.6-5.4
		h-7.7v18.3h2.2v-7.4h4.3l4.8,7.4h2.4l-4.9-7.5C408.7,49.9,410.5,47.8,410.5,44.9L410.5,44.9z"/>
	<path d="M22.1,80.1c-1.4-2.5-2.2-5.4-2.2-8.5H0c0.1,3.8,0.7,7.3,1.7,10.6C8.3,81.2,15.1,80.5,22.1,80.1L22.1,80.1z"/>
	<path d="M59.6,75.1c0,2-0.4,3.7-1.2,5.4c6.9,0.6,13.7,1.4,20.2,2.6c0.8-2.7,1.2-5.6,1.2-8.6C79.9,35.5,23,52.8,23,30.2
		c0-8.2,7-13.4,16.7-13.4c10.8,0,18,6.5,18.3,16.8h19.2C76.9,13.4,61.5,0,40.2,0C18.3,0,2.7,12.2,2.7,31.5
		C2.7,69.4,59.6,52.8,59.6,75.1L59.6,75.1z"/>
</g>
</svg>
